  0
SECTION
  2
HEADER
  9
$ACADVER
  1
AC1009
  0
ENDSEC
  0
SECTION
  2
TABLES
  0
TABLE
  2
LAYER
 70
1
  0
LAYER
  2
0
 70
0
 62
7
  6
CONTINUOUS
  0
ENDTAB
  0
ENDSEC
  0
SECTION
  2
ENTITIES
  0
TEXT
  8
0
 10
10
 20
280
 40
5
  1
01-K1
  0
TEXT
  8
0
 10
10
 20
270
 40
3
  1
Elektrotechnik Trahe GmbH
  0
TEXT
  8
0
 10
10
 20
262
 40
2.5
  1
Industriesteuerung
  0
LINE
  8
0
 10
50
 20
250
 11
50
 21
50
  0
LINE
  8
0
 10
100
 20
250
 11
100
 21
50
  0
LINE
  8
0
 10
150
 20
250
 11
150
 21
50
  0
TEXT
  8
0
 10
48
 20
255
 40
3
  1
L1
  0
TEXT
  8
0
 10
98
 20
255
 40
3
  1
L2
  0
TEXT
  8
0
 10
148
 20
255
 40
3
  1
L3
  0
LINE
  8
0
 10
50
 20
200
 11
150
 21
200
  0
CIRCLE
  8
0
 10
50
 20
190
 40
5
  0
CIRCLE
  8
0
 10
100
 20
190
 40
5
  0
CIRCLE
  8
0
 10
150
 20
190
 40
5
  0
TEXT
  8
0
 10
160
 20
188
 40
3
  1
K1
  0
LINE
  8
0
 10
50
 20
180
 11
50
 21
150
  0
LINE
  8
0
 10
100
 20
180
 11
100
 21
150
  0
LINE
  8
0
 10
150
 20
180
 11
150
 21
150
  0
LINE
  8
0
 10
45
 20
155
 11
55
 21
145
  0
LINE
  8
0
 10
95
 20
155
 11
105
 21
145
  0
LINE
  8
0
 10
145
 20
155
 11
155
 21
145
  0
TEXT
  8
0
 10
160
 20
150
 40
3
  1
Q1
  0
CIRCLE
  8
0
 10
100
 20
100
 40
20
  0
TEXT
  8
0
 10
90
 20
95
 40
5
  1
M
  0
TEXT
  8
0
 10
110
 20
95
 40
3
  1
3~
  0
LINE
  8
0
 10
50
 20
140
 11
50
 21
120
  0
LINE
  8
0
 10
50
 20
120
 11
80
 21
100
  0
LINE
  8
0
 10
100
 20
140
 11
100
 21
120
  0
LINE
  8
0
 10
150
 20
140
 11
150
 21
120
  0
LINE
  8
0
 10
150
 20
120
 11
120
 21
100
  0
LINE
  8
0
 10
100
 20
80
 11
100
 21
60
  0
LINE
  8
0
 10
90
 20
60
 11
110
 21
60
  0
LINE
  8
0
 10
93
 20
57
 11
107
 21
57
  0
LINE
  8
0
 10
96
 20
54
 11
104
 21
54
  0
ENDSEC
  0
EOF
